<svg width="19" height="21" viewBox="0 0 19 21" fill="none" xmlns="http://www.w3.org/2000/svg">
<path d="M1.96795 9.97932V17.9793C1.96795 18.5098 2.17866 19.0185 2.55374 19.3935C2.92881 19.7686 3.43752 19.9793 3.96795 19.9793H15.9679C16.4984 19.9793 17.0071 19.7686 17.3822 19.3935C17.7572 19.0185 17.9679 18.5098 17.9679 17.9793V9.97932H1.96795ZM1.96795 9.97932L1.08795 7.10932C1.0108 6.85785 0.984022 6.59363 1.00914 6.33179C1.03425 6.06995 1.11077 5.81563 1.23432 5.58341C1.35786 5.35119 1.526 5.14561 1.72911 4.97847C1.93221 4.81132 2.16629 4.68587 2.41795 4.60932L13.898 1.10932C14.4045 0.953108 14.9524 1.00439 15.4211 1.2519C15.8899 1.49942 16.2413 1.92291 16.398 2.42932L17.2679 5.29932L1.96795 9.98932L1.96795 9.97932ZM4.56795 3.96932L7.94795 8.16932M9.82795 2.35932L13.2079 6.55932" stroke="#CECECE" stroke-width="2" stroke-linecap="round" stroke-linejoin="round"/>
</svg>
